<svg width="116" height="116" viewBox="0 0 116 40" fill="none" xmlns="http://www.w3.org/2000/svg">
<path d="M7 15L3.08 3.3H3C3.01333 3.56667 3.03333 3.94667 3.06 4.44C3.08667 4.92 3.10667 5.44667 3.12 6.02C3.14667 6.58 3.16 7.10667 3.16 7.6V15H0.86V0.719999H4.42L8.18 11.94H8.26L12.18 0.719999H15.74V15H13.3V7.48C13.3 7.02667 13.3067 6.53333 13.32 6C13.3467 5.45333 13.3667 4.94 13.38 4.46C13.4067 3.96667 13.4267 3.58667 13.44 3.32H13.36L9.28 15H7ZM28.2542 15L26.9542 11.22H21.5742L20.2942 15H17.5742L22.8142 0.66H25.7342L30.9742 15H28.2542ZM25.0542 5.34C25.0009 5.15333 24.9209 4.9 24.8142 4.58C24.7076 4.26 24.6009 3.93333 24.4942 3.6C24.4009 3.25333 24.3276 2.96667 24.2742 2.74C24.2076 3.00667 24.1209 3.31333 24.0142 3.66C23.9209 4.00667 23.8276 4.33333 23.7342 4.64C23.6542 4.94667 23.5876 5.18 23.5342 5.34L22.2742 9.02H26.2942L25.0542 5.34ZM35.8208 7.02L39.0808 0.719999H41.8408L37.1008 9.44V15H34.5408V9.54L29.8008 0.719999H32.5808L35.8208 7.02ZM51.3206 15L50.0206 11.22H44.6406L43.3606 15H40.6406L45.8806 0.66H48.8006L54.0406 15H51.3206ZM48.1206 5.34C48.0673 5.15333 47.9873 4.9 47.8806 4.58C47.774 4.26 47.6673 3.93333 47.5606 3.6C47.4673 3.25333 47.394 2.96667 47.3406 2.74C47.274 3.00667 47.1873 3.31333 47.0806 3.66C46.9873 4.00667 46.894 4.33333 46.8006 4.64C46.7206 4.94667 46.654 5.18 46.6006 5.34L45.3406 9.02H49.3606L48.1206 5.34ZM8.98 39H0.86V24.72H8.98V26.86H3.42V30.5H8.62V32.64H3.42V36.84H8.98V39ZM24.1523 39H20.9723L14.2123 27.8H14.1323C14.1457 28.0933 14.159 28.4067 14.1723 28.74C14.199 29.06 14.219 29.3933 14.2323 29.74C14.2457 30.0733 14.259 30.4133 14.2723 30.76C14.2857 31.1067 14.299 31.4533 14.3123 31.8V39H12.0123V24.72H15.1723L21.9123 35.84H21.9723C21.959 35.5733 21.9457 35.2867 21.9323 34.98C21.919 34.66 21.9057 34.3333 21.8923 34C21.8923 33.6667 21.8857 33.3267 21.8723 32.98C21.859 32.6333 21.8457 32.3 21.8323 31.98V24.72H24.1523V39ZM32.9917 39H30.4317V26.88H26.3317V24.72H37.0917V26.88H32.9917V39ZM47.398 39H39.278V24.72H47.398V26.86H41.838V30.5H47.038V32.64H41.838V36.84H47.398V39ZM54.4903 24.72C55.7436 24.72 56.777 24.8733 57.5903 25.18C58.4036 25.4867 59.0103 25.9533 59.4103 26.58C59.8103 27.1933 60.0103 27.9733 60.0103 28.92C60.0103 29.6133 59.877 30.2067 59.6103 30.7C59.357 31.1933 59.0236 31.6067 58.6103 31.94C58.197 32.26 57.7503 32.52 57.2703 32.72L61.3703 39H58.4903L55.0703 33.36H52.9903V39H50.4303V24.72H54.4903ZM54.3303 26.86H52.9903V31.26H54.4103C55.117 31.26 55.6903 31.1733 56.1303 31C56.5703 30.8267 56.8903 30.5733 57.0903 30.24C57.3036 29.9067 57.4103 29.4933 57.4103 29C57.4103 28.48 57.297 28.0667 57.0703 27.76C56.8436 27.44 56.5036 27.2133 56.0503 27.08C55.6103 26.9333 55.037 26.86 54.3303 26.86ZM67.62 24.72C69.4733 24.72 70.82 25.1067 71.66 25.88C72.5133 26.6533 72.94 27.72 72.94 29.08C72.94 29.6933 72.8467 30.28 72.66 30.84C72.4733 31.3867 72.16 31.88 71.72 32.32C71.28 32.76 70.7 33.1067 69.98 33.36C69.2733 33.6133 68.3933 33.74 67.34 33.74H65.92V39H63.36V24.72H67.62ZM67.46 26.84H65.92V31.62H67.08C67.7733 31.62 68.36 31.54 68.84 31.38C69.3333 31.2067 69.7067 30.94 69.96 30.58C70.2133 30.22 70.34 29.7533 70.34 29.18C70.34 28.3933 70.1067 27.8067 69.64 27.42C69.1733 27.0333 68.4467 26.84 67.46 26.84ZM79.8028 24.72C81.0561 24.72 82.0895 24.8733 82.9028 25.18C83.7161 25.4867 84.3228 25.9533 84.7228 26.58C85.1228 27.1933 85.3228 27.9733 85.3228 28.92C85.3228 29.6133 85.1895 30.2067 84.9228 30.7C84.6695 31.1933 84.3361 31.6067 83.9228 31.94C83.5095 32.26 83.0628 32.52 82.5828 32.72L86.6828 39H83.8028L80.3828 33.36H78.3028V39H75.7428V24.72H79.8028ZM79.6428 26.86H78.3028V31.26H79.7228C80.4295 31.26 81.0028 31.1733 81.4428 31C81.8828 30.8267 82.2028 30.5733 82.4028 30.24C82.6161 29.9067 82.7228 29.4933 82.7228 29C82.7228 28.48 82.6095 28.0667 82.3828 27.76C82.1561 27.44 81.8161 27.2133 81.3628 27.08C80.9228 26.9333 80.3495 26.86 79.6428 26.86ZM93.5125 39H87.5125V37.54L89.2325 36.9V26.84L87.5125 26.18V24.72H93.5125V26.18L91.7925 26.84V36.9L93.5125 37.54V39ZM104.375 35.1C104.375 35.94 104.168 36.6667 103.755 37.28C103.342 37.8933 102.742 38.3667 101.955 38.7C101.182 39.0333 100.255 39.2 99.1748 39.2C98.6548 39.2 98.1548 39.1667 97.6748 39.1C97.2082 39.0467 96.7615 38.96 96.3348 38.84C95.9215 38.72 95.5348 38.5733 95.1748 38.4V36C95.7748 36.2667 96.4348 36.5133 97.1548 36.74C97.8748 36.9533 98.6082 37.06 99.3548 37.06C99.9282 37.06 100.395 36.9867 100.755 36.84C101.128 36.68 101.402 36.4667 101.575 36.2C101.748 35.92 101.835 35.6 101.835 35.24C101.835 34.84 101.722 34.5 101.495 34.22C101.268 33.94 100.935 33.68 100.495 33.44C100.055 33.2 99.5082 32.9467 98.8548 32.68C98.4148 32.4933 97.9815 32.2867 97.5548 32.06C97.1415 31.82 96.7682 31.5333 96.4348 31.2C96.1015 30.8667 95.8348 30.4733 95.6348 30.02C95.4348 29.5667 95.3348 29.0333 95.3348 28.42C95.3348 27.6067 95.5282 26.9067 95.9148 26.32C96.3148 25.7333 96.8682 25.2867 97.5748 24.98C98.2948 24.6733 99.1282 24.52 100.075 24.52C100.835 24.52 101.548 24.6 102.215 24.76C102.882 24.92 103.542 25.1467 104.195 25.44L103.375 27.5C102.788 27.2467 102.222 27.0467 101.675 26.9C101.128 26.7533 100.568 26.68 99.9948 26.68C99.5415 26.68 99.1548 26.7533 98.8348 26.9C98.5148 27.0333 98.2748 27.2267 98.1148 27.48C97.9548 27.7333 97.8748 28.0267 97.8748 28.36C97.8748 28.7467 97.9748 29.0733 98.1748 29.34C98.3748 29.6067 98.6815 29.86 99.0948 30.1C99.5215 30.3267 100.068 30.5867 100.735 30.88C101.508 31.2133 102.162 31.56 102.695 31.92C103.228 32.28 103.642 32.7133 103.935 33.22C104.228 33.7267 104.375 34.3533 104.375 35.1ZM115.191 39H107.071V24.72H115.191V26.86H109.631V30.5H114.831V32.64H109.631V36.84H115.191V39Z" fill="#14967F"/>
</svg>
